<svg width="720" height="676" viewBox="0 0 720 676" fill="none" xmlns="http://www.w3.org/2000/svg">
<ellipse cx="360" cy="338" rx="360" ry="338" fill="#FDF7E1"/>
<path d="M293.359 327C315.026 334.667 325.859 352.333 325.859 380V438C325.859 482 305.193 504 263.859 504H135.359V180.5H259.859C301.193 180.5 321.859 202.5 321.859 246.5V276C321.859 302.667 312.359 319.667 293.359 327ZM242.359 228H205.359V314.5H242.359C245.026 314.5 247.193 313.5 248.859 311.5C250.859 309.5 251.859 307.167 251.859 304.5V238C251.859 235.333 250.859 233 248.859 231C247.193 229 245.026 228 242.359 228ZM255.859 446V373.5C255.859 370.833 254.859 368.5 252.859 366.5C251.193 364.5 249.026 363.5 246.359 363.5H205.359V456H246.359C249.026 456 251.193 455 252.859 453C254.859 451 255.859 448.667 255.859 446Z" fill="#6D2E2E"/>
<path d="M579.998 265.5H513.498V240C513.498 237.333 512.498 235 510.498 233C508.831 231 506.665 230 503.998 230H476.498C473.831 230 471.498 231 469.498 233C467.831 235 466.998 237.333 466.998 240V297.5C466.998 300.167 467.831 302.5 469.498 304.5C471.498 306.5 473.831 307.5 476.498 307.5H521.498C562.831 308.167 583.498 330.167 583.498 373.5V443C583.498 487 562.831 509 521.498 509H462.498C421.165 509 400.498 487 400.498 443V409.5H466.998V445.5C466.998 448.167 467.831 450.5 469.498 452.5C471.498 454.5 473.831 455.5 476.498 455.5H507.498C510.165 455.5 512.331 454.5 513.998 452.5C515.998 450.5 516.998 448.167 516.998 445.5V382C516.998 379.333 515.998 377 513.998 375C512.331 373 510.165 372 507.498 372H462.498C421.165 372 400.498 350 400.498 306V241.5C400.498 197.5 421.165 175.5 462.498 175.5H517.998C559.331 175.5 579.998 197.5 579.998 241.5V265.5Z" fill="#6D2E2E"/>
</svg>
